<?xml version="1.0" encoding="UTF-8"?>
<!DOCTYPE svg PUBLIC "-//W3C//DTD SVG 1.1//EN" "http://www.w3.org/Graphics/SVG/1.1/DTD/svg11.dtd">
<svg version="1.2" width="50mm" height="50mm" viewBox="0 0 5000 5000" preserveAspectRatio="xMidYMid" fill-rule="evenodd" stroke-width="28.222" stroke-linejoin="round" xmlns="http://www.w3.org/2000/svg" xmlns:ooo="http://xml.openoffice.org/svg/export" xmlns:xlink="http://www.w3.org/1999/xlink" xmlns:presentation="http://sun.com/xmlns/staroffice/presentation" xmlns:smil="http://www.w3.org/2001/SMIL20/" xmlns:anim="urn:oasis:names:tc:opendocument:xmlns:animation:1.0" xml:space="preserve">
 <defs class="ClipPathGroup">
  <clipPath id="presentation_clip_path" clipPathUnits="userSpaceOnUse">
   <rect x="0" y="0" width="5000" height="5000"/>
  </clipPath>
  <clipPath id="presentation_clip_path_shrink" clipPathUnits="userSpaceOnUse">
   <rect x="5" y="5" width="4990" height="4990"/>
  </clipPath>
 </defs>
 <defs class="TextShapeIndex">
  <g ooo:slide="id1" ooo:id-list="id3 id4 id5 id6 id7 id8"/>
 </defs>
 <defs class="EmbeddedBulletChars">
  <g id="bullet-char-template-57356" transform="scale(0.00048828125,-0.00048828125)">
   <path d="M 580,1141 L 1163,571 580,0 -4,571 580,1141 Z"/>
  </g>
  <g id="bullet-char-template-57354" transform="scale(0.00048828125,-0.00048828125)">
   <path d="M 8,1128 L 1137,1128 1137,0 8,0 8,1128 Z"/>
  </g>
  <g id="bullet-char-template-10146" transform="scale(0.00048828125,-0.00048828125)">
   <path d="M 174,0 L 602,739 174,1481 1456,739 174,0 Z M 1358,739 L 309,1346 659,739 1358,739 Z"/>
  </g>
  <g id="bullet-char-template-10132" transform="scale(0.00048828125,-0.00048828125)">
   <path d="M 2015,739 L 1276,0 717,0 1260,543 174,543 174,936 1260,936 717,1481 1274,1481 2015,739 Z"/>
  </g>
  <g id="bullet-char-template-10007" transform="scale(0.00048828125,-0.00048828125)">
   <path d="M 0,-2 C -7,14 -16,27 -25,37 L 356,567 C 262,823 215,952 215,954 215,979 228,992 255,992 264,992 276,990 289,987 310,991 331,999 354,1012 L 381,999 492,748 772,1049 836,1024 860,1049 C 881,1039 901,1025 922,1006 886,937 835,863 770,784 769,783 710,716 594,584 L 774,223 C 774,196 753,168 711,139 L 727,119 C 717,90 699,76 672,76 641,76 570,178 457,381 L 164,-76 C 142,-110 111,-127 72,-127 30,-127 9,-110 8,-76 1,-67 -2,-52 -2,-32 -2,-23 -1,-13 0,-2 Z"/>
  </g>
  <g id="bullet-char-template-10004" transform="scale(0.00048828125,-0.00048828125)">
   <path d="M 285,-33 C 182,-33 111,30 74,156 52,228 41,333 41,471 41,549 55,616 82,672 116,743 169,778 240,778 293,778 328,747 346,684 L 369,508 C 377,444 397,411 428,410 L 1163,1116 C 1174,1127 1196,1133 1229,1133 1271,1133 1292,1118 1292,1087 L 1292,965 C 1292,929 1282,901 1262,881 L 442,47 C 390,-6 338,-33 285,-33 Z"/>
  </g>
  <g id="bullet-char-template-9679" transform="scale(0.00048828125,-0.00048828125)">
   <path d="M 813,0 C 632,0 489,54 383,161 276,268 223,411 223,592 223,773 276,916 383,1023 489,1130 632,1184 813,1184 992,1184 1136,1130 1245,1023 1353,916 1407,772 1407,592 1407,412 1353,268 1245,161 1136,54 992,0 813,0 Z"/>
  </g>
  <g id="bullet-char-template-8226" transform="scale(0.00048828125,-0.00048828125)">
   <path d="M 346,457 C 273,457 209,483 155,535 101,586 74,649 74,723 74,796 101,859 155,911 209,963 273,989 346,989 419,989 480,963 531,910 582,859 608,796 608,723 608,648 583,586 532,535 482,483 420,457 346,457 Z"/>
  </g>
  <g id="bullet-char-template-8211" transform="scale(0.00048828125,-0.00048828125)">
   <path d="M -4,459 L 1135,459 1135,606 -4,606 -4,459 Z"/>
  </g>
  <g id="bullet-char-template-61548" transform="scale(0.00048828125,-0.00048828125)">
   <path d="M 173,740 C 173,903 231,1043 346,1159 462,1274 601,1332 765,1332 928,1332 1067,1274 1183,1159 1299,1043 1357,903 1357,740 1357,577 1299,437 1183,322 1067,206 928,148 765,148 601,148 462,206 346,322 231,437 173,577 173,740 Z"/>
  </g>
 </defs>
 <g>
  <g id="id2" class="Master_Slide">
   <g id="bg-id2" class="Background"/>
   <g id="bo-id2" class="BackgroundObjects"/>
  </g>
 </g>
 <g class="SlideGroup">
  <g>
   <g id="container-id1">
    <g id="id1" class="Slide" clip-path="url(#presentation_clip_path)">
     <g class="Page">
      <g class="com.sun.star.drawing.CustomShape">
       <g id="id3">
        <rect class="BoundingBox" stroke="none" fill="none" x="150" y="150" width="4702" height="4702"/>
        <path fill="rgb(255,255,255)" stroke="none" d="M 4801,2501 C 4801,2904 4695,3301 4493,3651 4291,4000 4000,4291 3651,4493 3301,4695 2904,4801 2501,4801 2097,4801 1700,4695 1350,4493 1001,4291 710,4000 508,3651 306,3301 200,2904 200,2501 200,2097 306,1700 508,1350 710,1001 1001,710 1350,508 1700,306 2097,200 2500,200 2904,200 3301,306 3651,508 4000,710 4291,1001 4493,1350 4695,1700 4801,2097 4801,2500 L 4801,2501 Z"/>
        <path fill="none" stroke="rgb(102,102,102)" stroke-width="100" stroke-linejoin="round" d="M 4801,2501 C 4801,2904 4695,3301 4493,3651 4291,4000 4000,4291 3651,4493 3301,4695 2904,4801 2501,4801 2097,4801 1700,4695 1350,4493 1001,4291 710,4000 508,3651 306,3301 200,2904 200,2501 200,2097 306,1700 508,1350 710,1001 1001,710 1350,508 1700,306 2097,200 2500,200 2904,200 3301,306 3651,508 4000,710 4291,1001 4493,1350 4695,1700 4801,2097 4801,2500 L 4801,2501 Z"/>
       </g>
      </g>
      <g class="com.sun.star.drawing.LineShape">
       <g id="id4">
        <rect class="BoundingBox" stroke="none" fill="none" x="2400" y="2400" width="2201" height="201"/>
        <path fill="none" stroke="rgb(102,102,102)" stroke-width="200" stroke-linejoin="round" stroke-linecap="round" d="M 2500,2500 L 4500,2500"/>
       </g>
      </g>
      <g class="com.sun.star.drawing.LineShape">
       <g id="id5">
        <rect class="BoundingBox" stroke="none" fill="none" x="2400" y="1000" width="501" height="1601"/>
        <path fill="none" stroke="rgb(102,102,102)" stroke-width="200" stroke-linejoin="round" stroke-linecap="round" d="M 2500,2500 L 2800,1100"/>
       </g>
      </g>
      <g class="com.sun.star.drawing.CustomShape">
       <g id="id6">
        <rect class="BoundingBox" stroke="none" fill="none" x="2249" y="2249" width="503" height="503"/>
        <path fill="rgb(0,0,0)" stroke="none" d="M 2751,2500 C 2751,2544 2739,2588 2717,2626 2695,2664 2664,2695 2626,2717 2588,2739 2544,2751 2500,2751 2457,2751 2413,2739 2375,2717 2337,2695 2306,2664 2284,2626 2262,2588 2250,2544 2250,2500 2250,2457 2262,2413 2284,2375 2306,2337 2337,2306 2375,2284 2413,2262 2457,2250 2500,2250 2544,2250 2588,2262 2626,2284 2664,2306 2695,2337 2717,2375 2739,2413 2751,2457 2751,2500 L 2751,2500 Z"/>
       </g>
      </g>
      <g class="com.sun.star.drawing.ClosedBezierShape">
       <g id="id7">
        <rect class="BoundingBox" stroke="none" fill="none" x="183" y="117" width="1327" height="1309"/>
        <path fill="rgb(179,179,179)" stroke="none" d="M 270,1375 C 223,1207 222,1032 264,867 307,702 393,553 514,435 634,317 785,233 951,194 1117,154 1292,159 1458,208 L 270,1375 Z"/>
        <path fill="none" stroke="rgb(76,76,76)" stroke-width="100" stroke-linejoin="round" d="M 270,1375 C 223,1207 222,1032 264,867 307,702 393,553 514,435 634,317 785,233 951,194 1117,154 1292,159 1458,208 L 270,1375 Z"/>
       </g>
      </g>
      <g class="com.sun.star.drawing.ClosedBezierShape">
       <g id="id8">
        <rect class="BoundingBox" stroke="none" fill="none" x="3549" y="142" width="1327" height="1309"/>
        <path fill="rgb(179,179,179)" stroke="none" d="M 4788,1400 C 4835,1232 4836,1057 4794,892 4751,727 4665,578 4544,460 4424,342 4273,258 4107,219 3941,179 3766,184 3600,233 L 4788,1400 Z"/>
        <path fill="none" stroke="rgb(76,76,76)" stroke-width="100" stroke-linejoin="round" d="M 4788,1400 C 4835,1232 4836,1057 4794,892 4751,727 4665,578 4544,460 4424,342 4273,258 4107,219 3941,179 3766,184 3600,233 L 4788,1400 Z"/>
       </g>
      </g>
     </g>
    </g>
   </g>
  </g>
 </g>
</svg>