<?xml version="1.0" encoding="UTF-8"?>
<!DOCTYPE svg PUBLIC "-//W3C//DTD SVG 1.1//EN" "http://www.w3.org/Graphics/SVG/1.1/DTD/svg11.dtd">
<svg version="1.2" width="50mm" height="50mm" viewBox="0 0 5000 5000" preserveAspectRatio="xMidYMid" fill-rule="evenodd" stroke-width="28.222" stroke-linejoin="round" xmlns="http://www.w3.org/2000/svg" xmlns:ooo="http://xml.openoffice.org/svg/export" xmlns:xlink="http://www.w3.org/1999/xlink" xmlns:presentation="http://sun.com/xmlns/staroffice/presentation" xmlns:smil="http://www.w3.org/2001/SMIL20/" xmlns:anim="urn:oasis:names:tc:opendocument:xmlns:animation:1.0" xml:space="preserve">
 <defs class="ClipPathGroup">
  <clipPath id="presentation_clip_path" clipPathUnits="userSpaceOnUse">
   <rect x="0" y="0" width="5000" height="5000"/>
  </clipPath>
  <clipPath id="presentation_clip_path_shrink" clipPathUnits="userSpaceOnUse">
   <rect x="5" y="5" width="4990" height="4990"/>
  </clipPath>
 </defs>
 <defs class="TextShapeIndex">
  <g ooo:slide="id1" ooo:id-list="id3 id4 id5 id6"/>
 </defs>
 <defs class="EmbeddedBulletChars">
  <g id="bullet-char-template-57356" transform="scale(0.00048828125,-0.00048828125)">
   <path d="M 580,1141 L 1163,571 580,0 -4,571 580,1141 Z"/>
  </g>
  <g id="bullet-char-template-57354" transform="scale(0.00048828125,-0.00048828125)">
   <path d="M 8,1128 L 1137,1128 1137,0 8,0 8,1128 Z"/>
  </g>
  <g id="bullet-char-template-10146" transform="scale(0.00048828125,-0.00048828125)">
   <path d="M 174,0 L 602,739 174,1481 1456,739 174,0 Z M 1358,739 L 309,1346 659,739 1358,739 Z"/>
  </g>
  <g id="bullet-char-template-10132" transform="scale(0.00048828125,-0.00048828125)">
   <path d="M 2015,739 L 1276,0 717,0 1260,543 174,543 174,936 1260,936 717,1481 1274,1481 2015,739 Z"/>
  </g>
  <g id="bullet-char-template-10007" transform="scale(0.00048828125,-0.00048828125)">
   <path d="M 0,-2 C -7,14 -16,27 -25,37 L 356,567 C 262,823 215,952 215,954 215,979 228,992 255,992 264,992 276,990 289,987 310,991 331,999 354,1012 L 381,999 492,748 772,1049 836,1024 860,1049 C 881,1039 901,1025 922,1006 886,937 835,863 770,784 769,783 710,716 594,584 L 774,223 C 774,196 753,168 711,139 L 727,119 C 717,90 699,76 672,76 641,76 570,178 457,381 L 164,-76 C 142,-110 111,-127 72,-127 30,-127 9,-110 8,-76 1,-67 -2,-52 -2,-32 -2,-23 -1,-13 0,-2 Z"/>
  </g>
  <g id="bullet-char-template-10004" transform="scale(0.00048828125,-0.00048828125)">
   <path d="M 285,-33 C 182,-33 111,30 74,156 52,228 41,333 41,471 41,549 55,616 82,672 116,743 169,778 240,778 293,778 328,747 346,684 L 369,508 C 377,444 397,411 428,410 L 1163,1116 C 1174,1127 1196,1133 1229,1133 1271,1133 1292,1118 1292,1087 L 1292,965 C 1292,929 1282,901 1262,881 L 442,47 C 390,-6 338,-33 285,-33 Z"/>
  </g>
  <g id="bullet-char-template-9679" transform="scale(0.00048828125,-0.00048828125)">
   <path d="M 813,0 C 632,0 489,54 383,161 276,268 223,411 223,592 223,773 276,916 383,1023 489,1130 632,1184 813,1184 992,1184 1136,1130 1245,1023 1353,916 1407,772 1407,592 1407,412 1353,268 1245,161 1136,54 992,0 813,0 Z"/>
  </g>
  <g id="bullet-char-template-8226" transform="scale(0.00048828125,-0.00048828125)">
   <path d="M 346,457 C 273,457 209,483 155,535 101,586 74,649 74,723 74,796 101,859 155,911 209,963 273,989 346,989 419,989 480,963 531,910 582,859 608,796 608,723 608,648 583,586 532,535 482,483 420,457 346,457 Z"/>
  </g>
  <g id="bullet-char-template-8211" transform="scale(0.00048828125,-0.00048828125)">
   <path d="M -4,459 L 1135,459 1135,606 -4,606 -4,459 Z"/>
  </g>
  <g id="bullet-char-template-61548" transform="scale(0.00048828125,-0.00048828125)">
   <path d="M 173,740 C 173,903 231,1043 346,1159 462,1274 601,1332 765,1332 928,1332 1067,1274 1183,1159 1299,1043 1357,903 1357,740 1357,577 1299,437 1183,322 1067,206 928,148 765,148 601,148 462,206 346,322 231,437 173,577 173,740 Z"/>
  </g>
 </defs>
 <g>
  <g id="id2" class="Master_Slide">
   <g id="bg-id2" class="Background"/>
   <g id="bo-id2" class="BackgroundObjects"/>
  </g>
 </g>
 <g class="SlideGroup">
  <g>
   <g id="container-id1">
    <g id="id1" class="Slide" clip-path="url(#presentation_clip_path)">
     <g class="Page">
      <g class="com.sun.star.drawing.CustomShape">
       <g id="id3">
        <rect class="BoundingBox" stroke="none" fill="none" x="600" y="600" width="3801" height="3801"/>
        <path fill="rgb(0,0,0)" stroke="none" d="M 4300,2500 C 4300,2816 4217,3126 4059,3400 3901,3674 3674,3901 3400,4059 3126,4217 2816,4300 2500,4300 2184,4300 1874,4217 1600,4059 1326,3901 1099,3674 941,3400 783,3126 700,2816 700,2500 700,2184 783,1874 941,1600 1099,1326 1326,1099 1600,941 1874,783 2184,700 2500,700 2816,700 3126,783 3400,941 3674,1099 3901,1326 4059,1600 4217,1874 4300,2184 4300,2500 L 4300,2500 Z"/>
        <path fill="none" stroke="rgb(102,102,102)" stroke-width="200" stroke-linejoin="round" d="M 4300,2500 C 4300,2816 4217,3126 4059,3400 3901,3674 3674,3901 3400,4059 3126,4217 2816,4300 2500,4300 2184,4300 1874,4217 1600,4059 1326,3901 1099,3674 941,3400 783,3126 700,2816 700,2500 700,2184 783,1874 941,1600 1099,1326 1326,1099 1600,941 1874,783 2184,700 2500,700 2816,700 3126,783 3400,941 3674,1099 3901,1326 4059,1600 4217,1874 4300,2184 4300,2500 L 4300,2500 Z"/>
       </g>
      </g>
      <g class="Group">
       <g class="com.sun.star.drawing.PolyPolygonShape">
        <g id="id4">
         <rect class="BoundingBox" stroke="none" fill="none" x="1507" y="2068" width="214" height="825"/>
         <path fill="rgb(255,255,255)" stroke="none" d="M 1508,2068 L 1720,2068 1720,2891 1508,2891 1508,2068 Z"/>
        </g>
       </g>
       <g class="com.sun.star.drawing.PolyPolygonShape">
        <g id="id5">
         <rect class="BoundingBox" stroke="none" fill="none" x="1904" y="2053" width="651" height="855"/>
         <path fill="rgb(255,255,255)" stroke="none" d="M 2499,2094 L 2499,2268 2466,2254 2432,2242 2400,2231 2367,2222 2335,2216 2304,2211 2274,2208 2260,2207 2245,2207 2227,2207 2210,2208 2194,2210 2179,2212 2166,2215 2153,2219 2143,2223 2138,2225 2133,2228 2128,2231 2124,2234 2120,2237 2117,2240 2114,2243 2111,2247 2108,2251 2106,2255 2103,2259 2102,2263 2100,2268 2099,2272 2098,2277 2097,2282 2097,2288 2096,2293 2097,2301 2097,2305 2098,2309 2099,2312 2100,2316 2101,2319 2103,2322 2104,2326 2106,2329 2108,2332 2110,2334 2113,2337 2115,2340 2118,2342 2121,2345 2124,2347 2128,2349 2136,2353 2145,2358 2155,2362 2167,2366 2180,2369 2210,2376 2300,2394 2333,2402 2364,2410 2392,2419 2418,2429 2441,2440 2462,2452 2480,2465 2488,2471 2496,2478 2503,2485 2509,2493 2515,2501 2521,2509 2526,2518 2531,2527 2535,2536 2539,2546 2545,2567 2550,2589 2553,2613 2553,2638 2552,2671 2548,2702 2542,2730 2538,2744 2533,2757 2528,2769 2522,2781 2515,2792 2508,2803 2500,2813 2492,2823 2482,2832 2473,2841 2462,2849 2451,2856 2439,2863 2427,2870 2414,2876 2400,2881 2371,2890 2338,2898 2304,2903 2266,2906 2226,2907 2187,2906 2148,2903 2108,2899 2069,2892 2029,2884 1990,2874 1951,2862 1911,2848 1911,2669 1950,2689 1989,2706 2027,2720 2064,2732 2082,2737 2100,2741 2118,2745 2136,2748 2154,2750 2171,2752 2188,2753 2206,2753 2222,2753 2238,2752 2253,2750 2267,2747 2280,2744 2291,2740 2302,2736 2307,2733 2312,2730 2316,2727 2321,2724 2325,2721 2328,2717 2331,2714 2334,2710 2337,2706 2340,2702 2342,2698 2344,2693 2345,2689 2347,2684 2348,2679 2348,2674 2349,2669 2349,2664 2349,2655 2347,2646 2346,2642 2345,2638 2344,2634 2343,2630 2341,2626 2339,2623 2337,2619 2335,2616 2332,2613 2330,2610 2327,2607 2324,2604 2320,2602 2317,2599 2308,2594 2298,2589 2286,2585 2273,2580 2258,2576 2224,2567 2142,2549 2112,2542 2084,2534 2058,2525 2035,2514 2013,2503 1994,2491 1976,2478 1968,2472 1961,2464 1954,2457 1948,2449 1942,2441 1936,2433 1931,2424 1926,2415 1922,2406 1918,2397 1912,2376 1908,2355 1905,2332 1904,2308 1905,2279 1909,2251 1912,2237 1915,2224 1919,2212 1924,2200 1929,2188 1935,2177 1942,2166 1949,2156 1956,2146 1965,2137 1974,2128 1983,2119 1994,2111 2004,2104 2016,2097 2027,2090 2053,2079 2080,2070 2110,2063 2142,2057 2176,2054 2212,2053 2246,2054 2280,2056 2316,2059 2351,2063 2387,2069 2424,2076 2461,2084 2499,2094 Z"/>
        </g>
       </g>
       <g class="com.sun.star.drawing.PolyPolygonShape">
        <g id="id6">
         <rect class="BoundingBox" stroke="none" fill="none" x="2692" y="2053" width="848" height="855"/>
         <path fill="rgb(255,255,255)" stroke="none" d="M 3116,2207 L 3092,2208 3081,2210 3070,2211 3059,2214 3049,2217 3039,2221 3029,2225 3020,2230 3011,2235 3003,2241 2995,2247 2987,2254 2979,2262 2972,2270 2965,2279 2959,2288 2953,2297 2942,2318 2933,2341 2925,2365 2919,2391 2915,2419 2912,2449 2912,2480 2912,2512 2915,2542 2919,2569 2925,2595 2933,2620 2942,2642 2953,2663 2959,2672 2965,2682 2972,2690 2979,2698 2987,2706 2995,2713 3003,2719 3011,2725 3020,2731 3029,2735 3039,2740 3049,2743 3059,2746 3070,2749 3081,2751 3092,2752 3116,2753 3139,2752 3151,2751 3162,2749 3172,2746 3183,2743 3193,2740 3202,2735 3211,2731 3220,2725 3229,2719 3237,2713 3245,2706 3253,2698 3260,2690 3267,2682 3273,2672 3279,2663 3290,2642 3299,2620 3307,2595 3313,2569 3317,2542 3319,2512 3320,2480 3319,2449 3317,2419 3313,2391 3307,2365 3299,2341 3290,2318 3279,2297 3273,2288 3267,2279 3260,2270 3253,2262 3245,2254 3237,2247 3229,2241 3220,2235 3211,2230 3202,2225 3193,2221 3183,2217 3172,2214 3162,2211 3151,2210 3139,2208 3116,2207 Z M 3116,2053 L 3164,2055 3209,2060 3252,2069 3293,2082 3312,2089 3330,2098 3348,2107 3365,2117 3381,2128 3397,2140 3412,2153 3427,2167 3440,2181 3453,2197 3465,2212 3476,2229 3486,2246 3495,2264 3503,2283 3511,2302 3523,2343 3532,2386 3537,2432 3539,2480 3537,2529 3532,2575 3523,2618 3511,2658 3503,2678 3495,2696 3486,2714 3476,2731 3465,2748 3453,2764 3440,2779 3427,2793 3412,2807 3397,2820 3381,2832 3365,2843 3348,2853 3330,2863 3312,2871 3293,2879 3252,2891 3209,2900 3164,2905 3116,2907 3067,2905 3022,2900 2979,2891 2939,2879 2920,2871 2901,2863 2884,2853 2867,2843 2850,2832 2834,2820 2819,2807 2805,2793 2791,2779 2779,2764 2767,2748 2756,2731 2746,2714 2736,2696 2728,2678 2720,2658 2708,2618 2699,2575 2694,2529 2692,2480 2694,2432 2699,2386 2708,2343 2720,2302 2728,2283 2736,2264 2746,2246 2756,2229 2767,2212 2779,2197 2791,2181 2805,2167 2819,2153 2834,2140 2850,2128 2867,2117 2884,2107 2901,2098 2920,2089 2939,2082 2979,2069 3022,2060 3067,2055 3116,2053 Z"/>
        </g>
       </g>
      </g>
     </g>
    </g>
   </g>
  </g>
 </g>
</svg>