<?xml version="1.0" encoding="UTF-8"?>
<!DOCTYPE svg PUBLIC "-//W3C//DTD SVG 1.1//EN" "http://www.w3.org/Graphics/SVG/1.1/DTD/svg11.dtd">
<svg version="1.2" width="50mm" height="50mm" viewBox="0 0 5000 5000" preserveAspectRatio="xMidYMid" fill-rule="evenodd" stroke-width="28.222" stroke-linejoin="round" xmlns="http://www.w3.org/2000/svg" xmlns:ooo="http://xml.openoffice.org/svg/export" xmlns:xlink="http://www.w3.org/1999/xlink" xmlns:presentation="http://sun.com/xmlns/staroffice/presentation" xmlns:smil="http://www.w3.org/2001/SMIL20/" xmlns:anim="urn:oasis:names:tc:opendocument:xmlns:animation:1.0" xml:space="preserve">
 <defs class="ClipPathGroup">
  <clipPath id="presentation_clip_path" clipPathUnits="userSpaceOnUse">
   <rect x="0" y="0" width="5000" height="5000"/>
  </clipPath>
  <clipPath id="presentation_clip_path_shrink" clipPathUnits="userSpaceOnUse">
   <rect x="5" y="5" width="4990" height="4990"/>
  </clipPath>
 </defs>
 <defs class="TextShapeIndex">
  <g ooo:slide="id1" ooo:id-list="id3 id4 id5 id6"/>
 </defs>
 <defs class="EmbeddedBulletChars">
  <g id="bullet-char-template-57356" transform="scale(0.00048828125,-0.00048828125)">
   <path d="M 580,1141 L 1163,571 580,0 -4,571 580,1141 Z"/>
  </g>
  <g id="bullet-char-template-57354" transform="scale(0.00048828125,-0.00048828125)">
   <path d="M 8,1128 L 1137,1128 1137,0 8,0 8,1128 Z"/>
  </g>
  <g id="bullet-char-template-10146" transform="scale(0.00048828125,-0.00048828125)">
   <path d="M 174,0 L 602,739 174,1481 1456,739 174,0 Z M 1358,739 L 309,1346 659,739 1358,739 Z"/>
  </g>
  <g id="bullet-char-template-10132" transform="scale(0.00048828125,-0.00048828125)">
   <path d="M 2015,739 L 1276,0 717,0 1260,543 174,543 174,936 1260,936 717,1481 1274,1481 2015,739 Z"/>
  </g>
  <g id="bullet-char-template-10007" transform="scale(0.00048828125,-0.00048828125)">
   <path d="M 0,-2 C -7,14 -16,27 -25,37 L 356,567 C 262,823 215,952 215,954 215,979 228,992 255,992 264,992 276,990 289,987 310,991 331,999 354,1012 L 381,999 492,748 772,1049 836,1024 860,1049 C 881,1039 901,1025 922,1006 886,937 835,863 770,784 769,783 710,716 594,584 L 774,223 C 774,196 753,168 711,139 L 727,119 C 717,90 699,76 672,76 641,76 570,178 457,381 L 164,-76 C 142,-110 111,-127 72,-127 30,-127 9,-110 8,-76 1,-67 -2,-52 -2,-32 -2,-23 -1,-13 0,-2 Z"/>
  </g>
  <g id="bullet-char-template-10004" transform="scale(0.00048828125,-0.00048828125)">
   <path d="M 285,-33 C 182,-33 111,30 74,156 52,228 41,333 41,471 41,549 55,616 82,672 116,743 169,778 240,778 293,778 328,747 346,684 L 369,508 C 377,444 397,411 428,410 L 1163,1116 C 1174,1127 1196,1133 1229,1133 1271,1133 1292,1118 1292,1087 L 1292,965 C 1292,929 1282,901 1262,881 L 442,47 C 390,-6 338,-33 285,-33 Z"/>
  </g>
  <g id="bullet-char-template-9679" transform="scale(0.00048828125,-0.00048828125)">
   <path d="M 813,0 C 632,0 489,54 383,161 276,268 223,411 223,592 223,773 276,916 383,1023 489,1130 632,1184 813,1184 992,1184 1136,1130 1245,1023 1353,916 1407,772 1407,592 1407,412 1353,268 1245,161 1136,54 992,0 813,0 Z"/>
  </g>
  <g id="bullet-char-template-8226" transform="scale(0.00048828125,-0.00048828125)">
   <path d="M 346,457 C 273,457 209,483 155,535 101,586 74,649 74,723 74,796 101,859 155,911 209,963 273,989 346,989 419,989 480,963 531,910 582,859 608,796 608,723 608,648 583,586 532,535 482,483 420,457 346,457 Z"/>
  </g>
  <g id="bullet-char-template-8211" transform="scale(0.00048828125,-0.00048828125)">
   <path d="M -4,459 L 1135,459 1135,606 -4,606 -4,459 Z"/>
  </g>
  <g id="bullet-char-template-61548" transform="scale(0.00048828125,-0.00048828125)">
   <path d="M 173,740 C 173,903 231,1043 346,1159 462,1274 601,1332 765,1332 928,1332 1067,1274 1183,1159 1299,1043 1357,903 1357,740 1357,577 1299,437 1183,322 1067,206 928,148 765,148 601,148 462,206 346,322 231,437 173,577 173,740 Z"/>
  </g>
 </defs>
 <g>
  <g id="id2" class="Master_Slide">
   <g id="bg-id2" class="Background"/>
   <g id="bo-id2" class="BackgroundObjects"/>
  </g>
 </g>
 <g class="SlideGroup">
  <g>
   <g id="container-id1">
    <g id="id1" class="Slide" clip-path="url(#presentation_clip_path)">
     <g class="Page">
      <g class="com.sun.star.drawing.CustomShape">
       <g id="id3">
        <rect class="BoundingBox" stroke="none" fill="none" x="849" y="50" width="3303" height="4902"/>
        <path fill="rgb(255,255,255)" stroke="none" d="M 1433,100 L 1434,100 C 1340,100 1248,125 1167,171 1086,218 1018,286 971,367 925,448 900,540 900,634 L 900,4367 900,4368 C 900,4461 925,4553 971,4634 1018,4715 1086,4783 1167,4830 1248,4876 1340,4901 1434,4901 L 3567,4901 3567,4901 C 3661,4901 3753,4876 3834,4830 3915,4783 3983,4715 4030,4634 4076,4553 4101,4461 4101,4368 L 4101,633 4101,634 4101,634 C 4101,540 4076,448 4030,367 3983,286 3915,218 3834,171 3753,125 3661,100 3567,100 L 1433,100 Z"/>
        <path fill="none" stroke="rgb(102,102,102)" stroke-width="100" stroke-linejoin="round" d="M 1433,100 L 1434,100 C 1340,100 1248,125 1167,171 1086,218 1018,286 971,367 925,448 900,540 900,634 L 900,4367 900,4368 C 900,4461 925,4553 971,4634 1018,4715 1086,4783 1167,4830 1248,4876 1340,4901 1434,4901 L 3567,4901 3567,4901 C 3661,4901 3753,4876 3834,4830 3915,4783 3983,4715 4030,4634 4076,4553 4101,4461 4101,4368 L 4101,633 4101,634 4101,634 C 4101,540 4076,448 4030,367 3983,286 3915,218 3834,171 3753,125 3661,100 3567,100 L 1433,100 Z"/>
       </g>
      </g>
      <g class="com.sun.star.drawing.CustomShape">
       <g id="id4">
        <rect class="BoundingBox" stroke="none" fill="none" x="2199" y="4249" width="603" height="603"/>
        <path fill="rgb(102,102,102)" stroke="none" d="M 2751,4550 C 2751,4594 2739,4638 2717,4676 2695,4714 2664,4745 2626,4767 2588,4789 2544,4801 2500,4801 2457,4801 2413,4789 2375,4767 2337,4745 2306,4714 2284,4676 2262,4638 2250,4594 2250,4550 2250,4507 2262,4463 2284,4425 2306,4387 2337,4356 2375,4334 2413,4312 2457,4300 2500,4300 2544,4300 2588,4312 2626,4334 2664,4356 2695,4387 2717,4425 2739,4463 2751,4507 2751,4550 L 2751,4550 Z"/>
        <path fill="none" stroke="rgb(153,153,153)" stroke-width="100" stroke-linejoin="round" d="M 2751,4550 C 2751,4594 2739,4638 2717,4676 2695,4714 2664,4745 2626,4767 2588,4789 2544,4801 2500,4801 2457,4801 2413,4789 2375,4767 2337,4745 2306,4714 2284,4676 2262,4638 2250,4594 2250,4550 2250,4507 2262,4463 2284,4425 2306,4387 2337,4356 2375,4334 2413,4312 2457,4300 2500,4300 2544,4300 2588,4312 2626,4334 2664,4356 2695,4387 2717,4425 2739,4463 2751,4507 2751,4550 Z"/>
       </g>
      </g>
      <g class="com.sun.star.drawing.LineShape">
       <g id="id5">
        <rect class="BoundingBox" stroke="none" fill="none" x="850" y="650" width="3301" height="101"/>
        <path fill="none" stroke="rgb(102,102,102)" stroke-width="100" stroke-linejoin="round" d="M 900,700 L 4100,700"/>
       </g>
      </g>
      <g class="com.sun.star.drawing.LineShape">
       <g id="id6">
        <rect class="BoundingBox" stroke="none" fill="none" x="2200" y="350" width="601" height="101"/>
        <path fill="none" stroke="rgb(102,102,102)" stroke-width="100" stroke-linejoin="round" d="M 2250,400 L 2750,400"/>
       </g>
      </g>
     </g>
    </g>
   </g>
  </g>
 </g>
</svg>