<?xml version="1.0" encoding="UTF-8"?>
<!DOCTYPE svg PUBLIC "-//W3C//DTD SVG 1.1//EN" "http://www.w3.org/Graphics/SVG/1.1/DTD/svg11.dtd">
<svg version="1.2" width="50mm" height="50mm" viewBox="0 0 5000 5000" preserveAspectRatio="xMidYMid" fill-rule="evenodd" stroke-width="28.222" stroke-linejoin="round" xmlns="http://www.w3.org/2000/svg" xmlns:ooo="http://xml.openoffice.org/svg/export" xmlns:xlink="http://www.w3.org/1999/xlink" xmlns:presentation="http://sun.com/xmlns/staroffice/presentation" xmlns:smil="http://www.w3.org/2001/SMIL20/" xmlns:anim="urn:oasis:names:tc:opendocument:xmlns:animation:1.0" xml:space="preserve">
 <defs class="ClipPathGroup">
  <clipPath id="presentation_clip_path" clipPathUnits="userSpaceOnUse">
   <rect x="0" y="0" width="5000" height="5000"/>
  </clipPath>
  <clipPath id="presentation_clip_path_shrink" clipPathUnits="userSpaceOnUse">
   <rect x="5" y="5" width="4990" height="4990"/>
  </clipPath>
 </defs>
 <defs class="TextShapeIndex">
  <g ooo:slide="id1" ooo:id-list="id3 id4 id5 id6 id7"/>
 </defs>
 <defs class="EmbeddedBulletChars">
  <g id="bullet-char-template-57356" transform="scale(0.00048828125,-0.00048828125)">
   <path d="M 580,1141 L 1163,571 580,0 -4,571 580,1141 Z"/>
  </g>
  <g id="bullet-char-template-57354" transform="scale(0.00048828125,-0.00048828125)">
   <path d="M 8,1128 L 1137,1128 1137,0 8,0 8,1128 Z"/>
  </g>
  <g id="bullet-char-template-10146" transform="scale(0.00048828125,-0.00048828125)">
   <path d="M 174,0 L 602,739 174,1481 1456,739 174,0 Z M 1358,739 L 309,1346 659,739 1358,739 Z"/>
  </g>
  <g id="bullet-char-template-10132" transform="scale(0.00048828125,-0.00048828125)">
   <path d="M 2015,739 L 1276,0 717,0 1260,543 174,543 174,936 1260,936 717,1481 1274,1481 2015,739 Z"/>
  </g>
  <g id="bullet-char-template-10007" transform="scale(0.00048828125,-0.00048828125)">
   <path d="M 0,-2 C -7,14 -16,27 -25,37 L 356,567 C 262,823 215,952 215,954 215,979 228,992 255,992 264,992 276,990 289,987 310,991 331,999 354,1012 L 381,999 492,748 772,1049 836,1024 860,1049 C 881,1039 901,1025 922,1006 886,937 835,863 770,784 769,783 710,716 594,584 L 774,223 C 774,196 753,168 711,139 L 727,119 C 717,90 699,76 672,76 641,76 570,178 457,381 L 164,-76 C 142,-110 111,-127 72,-127 30,-127 9,-110 8,-76 1,-67 -2,-52 -2,-32 -2,-23 -1,-13 0,-2 Z"/>
  </g>
  <g id="bullet-char-template-10004" transform="scale(0.00048828125,-0.00048828125)">
   <path d="M 285,-33 C 182,-33 111,30 74,156 52,228 41,333 41,471 41,549 55,616 82,672 116,743 169,778 240,778 293,778 328,747 346,684 L 369,508 C 377,444 397,411 428,410 L 1163,1116 C 1174,1127 1196,1133 1229,1133 1271,1133 1292,1118 1292,1087 L 1292,965 C 1292,929 1282,901 1262,881 L 442,47 C 390,-6 338,-33 285,-33 Z"/>
  </g>
  <g id="bullet-char-template-9679" transform="scale(0.00048828125,-0.00048828125)">
   <path d="M 813,0 C 632,0 489,54 383,161 276,268 223,411 223,592 223,773 276,916 383,1023 489,1130 632,1184 813,1184 992,1184 1136,1130 1245,1023 1353,916 1407,772 1407,592 1407,412 1353,268 1245,161 1136,54 992,0 813,0 Z"/>
  </g>
  <g id="bullet-char-template-8226" transform="scale(0.00048828125,-0.00048828125)">
   <path d="M 346,457 C 273,457 209,483 155,535 101,586 74,649 74,723 74,796 101,859 155,911 209,963 273,989 346,989 419,989 480,963 531,910 582,859 608,796 608,723 608,648 583,586 532,535 482,483 420,457 346,457 Z"/>
  </g>
  <g id="bullet-char-template-8211" transform="scale(0.00048828125,-0.00048828125)">
   <path d="M -4,459 L 1135,459 1135,606 -4,606 -4,459 Z"/>
  </g>
  <g id="bullet-char-template-61548" transform="scale(0.00048828125,-0.00048828125)">
   <path d="M 173,740 C 173,903 231,1043 346,1159 462,1274 601,1332 765,1332 928,1332 1067,1274 1183,1159 1299,1043 1357,903 1357,740 1357,577 1299,437 1183,322 1067,206 928,148 765,148 601,148 462,206 346,322 231,437 173,577 173,740 Z"/>
  </g>
 </defs>
 <g>
  <g id="id2" class="Master_Slide">
   <g id="bg-id2" class="Background"/>
   <g id="bo-id2" class="BackgroundObjects"/>
  </g>
 </g>
 <g class="SlideGroup">
  <g>
   <g id="container-id1">
    <g id="id1" class="Slide" clip-path="url(#presentation_clip_path)">
     <g class="Page">
      <g class="com.sun.star.drawing.CustomShape">
       <g id="id3">
        <rect class="BoundingBox" stroke="none" fill="none" x="50" y="50" width="4902" height="4902"/>
        <path fill="rgb(255,255,255)" stroke="none" d="M 1506,100 L 3494,100 4901,1506 4901,3494 3494,4901 1506,4901 100,3494 100,1506 1506,100 Z"/>
        <path fill="none" stroke="rgb(220,35,0)" stroke-width="100" stroke-linejoin="round" d="M 1506,100 L 3494,100 4901,1506 4901,3494 3494,4901 1506,4901 100,3494 100,1506 1506,100 Z"/>
       </g>
      </g>
      <g class="Group">
       <g class="com.sun.star.drawing.PolyPolygonShape">
        <g id="id4">
         <rect class="BoundingBox" stroke="none" fill="none" x="1296" y="2164" width="489" height="643"/>
         <path fill="rgb(220,35,0)" stroke="none" d="M 1743,2195 L 1743,2326 1718,2315 1693,2306 1669,2298 1644,2292 1620,2287 1597,2283 1575,2281 1564,2280 1553,2280 1539,2280 1526,2281 1514,2282 1503,2284 1493,2286 1484,2289 1476,2292 1472,2294 1468,2296 1465,2298 1462,2300 1459,2302 1456,2305 1454,2307 1452,2310 1450,2313 1448,2316 1446,2319 1445,2322 1444,2326 1443,2329 1442,2333 1442,2337 1441,2341 1441,2345 1441,2351 1442,2354 1442,2356 1443,2359 1444,2362 1445,2364 1446,2367 1447,2369 1448,2371 1450,2374 1451,2376 1453,2378 1455,2380 1457,2382 1460,2383 1462,2385 1465,2387 1471,2390 1478,2393 1485,2396 1494,2399 1504,2402 1526,2407 1594,2421 1619,2426 1642,2433 1663,2439 1682,2447 1700,2455 1715,2464 1729,2474 1735,2479 1741,2484 1746,2489 1751,2495 1755,2501 1760,2507 1763,2514 1767,2520 1770,2528 1773,2535 1778,2550 1781,2567 1783,2585 1784,2604 1783,2629 1780,2652 1775,2673 1772,2683 1769,2693 1765,2702 1760,2711 1755,2720 1750,2728 1744,2736 1738,2743 1731,2750 1723,2756 1716,2762 1707,2768 1698,2773 1689,2778 1679,2782 1669,2786 1647,2794 1623,2799 1597,2803 1568,2805 1538,2806 1509,2805 1479,2803 1450,2800 1420,2795 1391,2789 1361,2781 1332,2772 1302,2762 1302,2627 1331,2642 1360,2655 1389,2666 1417,2675 1430,2678 1444,2681 1457,2684 1471,2686 1484,2688 1497,2689 1510,2690 1523,2690 1536,2690 1548,2689 1559,2688 1569,2686 1579,2684 1587,2681 1596,2677 1599,2675 1603,2673 1606,2671 1609,2668 1612,2666 1615,2663 1617,2661 1620,2658 1622,2655 1624,2652 1625,2649 1627,2645 1628,2642 1629,2639 1630,2635 1630,2631 1630,2627 1631,2623 1630,2616 1629,2610 1629,2607 1628,2603 1627,2601 1626,2598 1625,2595 1623,2592 1622,2590 1620,2587 1618,2585 1616,2583 1614,2581 1612,2579 1609,2577 1606,2575 1600,2571 1592,2567 1584,2564 1574,2560 1562,2557 1537,2550 1475,2537 1453,2531 1432,2525 1413,2519 1395,2511 1379,2503 1364,2494 1351,2484 1345,2479 1340,2473 1334,2468 1330,2462 1325,2456 1321,2450 1317,2443 1314,2437 1310,2430 1307,2422 1303,2407 1299,2391 1297,2374 1297,2356 1298,2334 1301,2313 1303,2303 1305,2293 1308,2284 1312,2275 1316,2266 1320,2257 1325,2249 1330,2242 1336,2234 1342,2227 1349,2221 1356,2214 1364,2208 1372,2203 1381,2197 1389,2192 1408,2184 1429,2177 1451,2171 1475,2168 1500,2165 1528,2164 1553,2165 1579,2166 1606,2169 1632,2172 1659,2176 1687,2182 1715,2188 1743,2195 Z"/>
        </g>
       </g>
       <g class="com.sun.star.drawing.PolyPolygonShape">
        <g id="id5">
         <rect class="BoundingBox" stroke="none" fill="none" x="1850" y="2175" width="571" height="620"/>
         <path fill="rgb(220,35,0)" stroke="none" d="M 1850,2175 L 2419,2175 2419,2296 2215,2296 2215,2794 2055,2794 2055,2296 1850,2296 1850,2175 Z"/>
        </g>
       </g>
       <g class="com.sun.star.drawing.PolyPolygonShape">
        <g id="id6">
         <rect class="BoundingBox" stroke="none" fill="none" x="2463" y="2164" width="637" height="643"/>
         <path fill="rgb(220,35,0)" stroke="none" d="M 2781,2280 L 2763,2281 2755,2282 2746,2283 2739,2285 2731,2288 2723,2290 2716,2293 2709,2297 2703,2301 2696,2305 2690,2310 2684,2316 2678,2321 2673,2327 2668,2334 2663,2341 2658,2348 2650,2364 2643,2380 2638,2399 2633,2418 2630,2439 2628,2462 2628,2485 2628,2509 2630,2531 2633,2552 2638,2572 2643,2590 2650,2607 2658,2622 2663,2630 2668,2637 2673,2643 2678,2649 2684,2655 2690,2660 2696,2665 2703,2669 2709,2673 2716,2677 2723,2680 2731,2683 2739,2685 2746,2687 2755,2689 2763,2690 2781,2690 2799,2690 2807,2689 2815,2687 2823,2685 2831,2683 2839,2680 2846,2677 2853,2673 2859,2669 2866,2665 2872,2660 2878,2655 2884,2649 2889,2643 2894,2637 2899,2630 2904,2622 2912,2607 2919,2590 2924,2572 2929,2552 2932,2531 2934,2509 2934,2485 2934,2462 2932,2439 2929,2418 2924,2399 2919,2380 2912,2364 2904,2348 2899,2341 2894,2334 2889,2327 2884,2321 2878,2316 2872,2310 2866,2305 2859,2301 2853,2297 2846,2293 2839,2290 2831,2288 2823,2285 2815,2283 2807,2282 2799,2281 2781,2280 Z M 2781,2164 L 2817,2166 2851,2170 2883,2176 2914,2186 2928,2191 2942,2198 2955,2205 2968,2212 2980,2221 2992,2230 3003,2239 3014,2250 3024,2261 3034,2272 3043,2284 3051,2297 3059,2309 3065,2323 3072,2337 3077,2351 3087,2382 3093,2414 3097,2449 3098,2485 3097,2522 3093,2556 3087,2589 3077,2619 3072,2634 3065,2648 3059,2661 3051,2674 3043,2686 3034,2698 3024,2710 3014,2721 3003,2731 2992,2741 2980,2750 2968,2758 2955,2766 2942,2773 2928,2779 2914,2785 2883,2794 2851,2801 2817,2805 2781,2806 2745,2805 2711,2801 2678,2794 2648,2785 2634,2779 2620,2773 2607,2766 2594,2758 2582,2750 2570,2741 2559,2731 2548,2721 2538,2710 2528,2698 2519,2686 2511,2674 2503,2661 2496,2648 2490,2634 2484,2619 2475,2589 2468,2556 2465,2522 2463,2485 2465,2449 2468,2414 2475,2382 2484,2351 2490,2337 2496,2323 2503,2309 2511,2297 2519,2284 2528,2272 2538,2261 2548,2250 2559,2239 2570,2230 2582,2221 2594,2212 2607,2205 2620,2198 2634,2191 2648,2186 2678,2176 2711,2170 2745,2166 2781,2164 Z"/>
        </g>
       </g>
       <g class="com.sun.star.drawing.PolyPolygonShape">
        <g id="id7">
         <rect class="BoundingBox" stroke="none" fill="none" x="3218" y="2175" width="511" height="620"/>
         <path fill="rgb(220,35,0)" stroke="none" d="M 3219,2175 L 3483,2175 3512,2176 3539,2179 3564,2183 3587,2189 3609,2196 3629,2205 3638,2210 3647,2216 3656,2221 3664,2228 3672,2235 3679,2242 3685,2249 3692,2257 3697,2265 3702,2273 3707,2282 3711,2291 3715,2301 3718,2311 3721,2321 3723,2331 3726,2354 3727,2377 3726,2401 3723,2423 3721,2433 3718,2444 3715,2454 3711,2463 3707,2472 3702,2481 3697,2490 3692,2498 3685,2505 3679,2513 3672,2520 3664,2527 3656,2533 3647,2539 3638,2544 3629,2550 3609,2559 3587,2566 3564,2572 3539,2576 3512,2578 3483,2579 3378,2579 3378,2794 3219,2794 3219,2175 Z M 3378,2291 L 3378,2463 3466,2463 3477,2463 3488,2462 3498,2460 3507,2458 3516,2455 3520,2453 3524,2451 3527,2449 3531,2446 3534,2444 3538,2441 3541,2438 3544,2435 3546,2432 3549,2428 3551,2425 3553,2421 3555,2418 3557,2414 3558,2410 3559,2405 3561,2397 3562,2387 3563,2377 3562,2367 3561,2358 3559,2349 3558,2344 3557,2340 3555,2337 3553,2333 3551,2329 3549,2326 3546,2322 3544,2319 3541,2316 3538,2313 3534,2311 3531,2308 3527,2306 3524,2304 3520,2302 3516,2300 3507,2297 3498,2294 3488,2292 3477,2291 3466,2291 3378,2291 Z"/>
        </g>
       </g>
      </g>
     </g>
    </g>
   </g>
  </g>
 </g>
</svg>