<?xml version="1.0" encoding="UTF-8"?>
<!DOCTYPE svg PUBLIC "-//W3C//DTD SVG 1.1//EN" "http://www.w3.org/Graphics/SVG/1.1/DTD/svg11.dtd">
<svg version="1.2" width="50mm" height="50mm" viewBox="0 0 5000 5000" preserveAspectRatio="xMidYMid" fill-rule="evenodd" stroke-width="28.222" stroke-linejoin="round" xmlns="http://www.w3.org/2000/svg" xmlns:ooo="http://xml.openoffice.org/svg/export" xmlns:xlink="http://www.w3.org/1999/xlink" xmlns:presentation="http://sun.com/xmlns/staroffice/presentation" xmlns:smil="http://www.w3.org/2001/SMIL20/" xmlns:anim="urn:oasis:names:tc:opendocument:xmlns:animation:1.0" xml:space="preserve">
 <defs class="ClipPathGroup">
  <clipPath id="presentation_clip_path" clipPathUnits="userSpaceOnUse">
   <rect x="0" y="0" width="5000" height="5000"/>
  </clipPath>
  <clipPath id="presentation_clip_path_shrink" clipPathUnits="userSpaceOnUse">
   <rect x="5" y="5" width="4990" height="4990"/>
  </clipPath>
 </defs>
 <defs class="TextShapeIndex">
  <g ooo:slide="id1" ooo:id-list="id3 id4 id5 id6"/>
 </defs>
 <defs class="EmbeddedBulletChars">
  <g id="bullet-char-template-57356" transform="scale(0.00048828125,-0.00048828125)">
   <path d="M 580,1141 L 1163,571 580,0 -4,571 580,1141 Z"/>
  </g>
  <g id="bullet-char-template-57354" transform="scale(0.00048828125,-0.00048828125)">
   <path d="M 8,1128 L 1137,1128 1137,0 8,0 8,1128 Z"/>
  </g>
  <g id="bullet-char-template-10146" transform="scale(0.00048828125,-0.00048828125)">
   <path d="M 174,0 L 602,739 174,1481 1456,739 174,0 Z M 1358,739 L 309,1346 659,739 1358,739 Z"/>
  </g>
  <g id="bullet-char-template-10132" transform="scale(0.00048828125,-0.00048828125)">
   <path d="M 2015,739 L 1276,0 717,0 1260,543 174,543 174,936 1260,936 717,1481 1274,1481 2015,739 Z"/>
  </g>
  <g id="bullet-char-template-10007" transform="scale(0.00048828125,-0.00048828125)">
   <path d="M 0,-2 C -7,14 -16,27 -25,37 L 356,567 C 262,823 215,952 215,954 215,979 228,992 255,992 264,992 276,990 289,987 310,991 331,999 354,1012 L 381,999 492,748 772,1049 836,1024 860,1049 C 881,1039 901,1025 922,1006 886,937 835,863 770,784 769,783 710,716 594,584 L 774,223 C 774,196 753,168 711,139 L 727,119 C 717,90 699,76 672,76 641,76 570,178 457,381 L 164,-76 C 142,-110 111,-127 72,-127 30,-127 9,-110 8,-76 1,-67 -2,-52 -2,-32 -2,-23 -1,-13 0,-2 Z"/>
  </g>
  <g id="bullet-char-template-10004" transform="scale(0.00048828125,-0.00048828125)">
   <path d="M 285,-33 C 182,-33 111,30 74,156 52,228 41,333 41,471 41,549 55,616 82,672 116,743 169,778 240,778 293,778 328,747 346,684 L 369,508 C 377,444 397,411 428,410 L 1163,1116 C 1174,1127 1196,1133 1229,1133 1271,1133 1292,1118 1292,1087 L 1292,965 C 1292,929 1282,901 1262,881 L 442,47 C 390,-6 338,-33 285,-33 Z"/>
  </g>
  <g id="bullet-char-template-9679" transform="scale(0.00048828125,-0.00048828125)">
   <path d="M 813,0 C 632,0 489,54 383,161 276,268 223,411 223,592 223,773 276,916 383,1023 489,1130 632,1184 813,1184 992,1184 1136,1130 1245,1023 1353,916 1407,772 1407,592 1407,412 1353,268 1245,161 1136,54 992,0 813,0 Z"/>
  </g>
  <g id="bullet-char-template-8226" transform="scale(0.00048828125,-0.00048828125)">
   <path d="M 346,457 C 273,457 209,483 155,535 101,586 74,649 74,723 74,796 101,859 155,911 209,963 273,989 346,989 419,989 480,963 531,910 582,859 608,796 608,723 608,648 583,586 532,535 482,483 420,457 346,457 Z"/>
  </g>
  <g id="bullet-char-template-8211" transform="scale(0.00048828125,-0.00048828125)">
   <path d="M -4,459 L 1135,459 1135,606 -4,606 -4,459 Z"/>
  </g>
  <g id="bullet-char-template-61548" transform="scale(0.00048828125,-0.00048828125)">
   <path d="M 173,740 C 173,903 231,1043 346,1159 462,1274 601,1332 765,1332 928,1332 1067,1274 1183,1159 1299,1043 1357,903 1357,740 1357,577 1299,437 1183,322 1067,206 928,148 765,148 601,148 462,206 346,322 231,437 173,577 173,740 Z"/>
  </g>
 </defs>
 <g>
  <g id="id2" class="Master_Slide">
   <g id="bg-id2" class="Background"/>
   <g id="bo-id2" class="BackgroundObjects"/>
  </g>
 </g>
 <g class="SlideGroup">
  <g>
   <g id="container-id1">
    <g id="id1" class="Slide" clip-path="url(#presentation_clip_path)">
     <g class="Page">
      <g class="Group">
       <g class="Group">
        <g class="com.sun.star.drawing.ClosedBezierShape">
         <g id="id3">
          <rect class="BoundingBox" stroke="none" fill="none" x="150" y="550" width="4702" height="3902"/>
          <path fill="rgb(255,255,255)" stroke="none" d="M 475,1174 C 559,1125 654,1100 750,1100 L 1050,1100 1050,800 C 1050,765 1059,731 1077,700 1094,670 1120,644 1150,627 1181,609 1215,600 1250,600 L 3751,600 C 3786,600 3820,609 3851,627 3881,644 3907,670 3924,700 3942,731 3951,765 3951,800 L 3951,1100 4251,1100 C 4347,1100 4442,1125 4526,1174 4610,1222 4679,1291 4727,1375 4776,1459 4801,1554 4801,1650 L 4801,3851 C 4801,3947 4776,4042 4727,4126 4679,4210 4610,4279 4526,4327 4442,4376 4347,4401 4251,4401 L 4250,4401 750,4401 C 654,4401 559,4376 475,4327 391,4279 322,4210 274,4126 225,4042 200,3947 200,3851 L 200,3850 200,1650 C 200,1554 225,1459 274,1375 322,1291 391,1222 475,1174 Z"/>
          <path fill="none" stroke="rgb(102,102,102)" stroke-width="100" stroke-linejoin="round" d="M 475,1174 C 559,1125 654,1100 750,1100 L 1050,1100 1050,800 C 1050,765 1059,731 1077,700 1094,670 1120,644 1150,627 1181,609 1215,600 1250,600 L 3751,600 C 3786,600 3820,609 3851,627 3881,644 3907,670 3924,700 3942,731 3951,765 3951,800 L 3951,1100 4251,1100 C 4347,1100 4442,1125 4526,1174 4610,1222 4679,1291 4727,1375 4776,1459 4801,1554 4801,1650 L 4801,3851 C 4801,3947 4776,4042 4727,4126 4679,4210 4610,4279 4526,4327 4442,4376 4347,4401 4251,4401 L 4250,4401 750,4401 C 654,4401 559,4376 475,4327 391,4279 322,4210 274,4126 225,4042 200,3947 200,3851 L 200,3850 200,1650 C 200,1554 225,1459 274,1375 322,1291 391,1222 475,1174 Z"/>
         </g>
        </g>
        <g class="com.sun.star.drawing.CustomShape">
         <g id="id4">
          <rect class="BoundingBox" stroke="none" fill="none" x="1600" y="1750" width="1802" height="1802"/>
          <path fill="rgb(255,255,255)" stroke="none" d="M 3351,2651 C 3351,2800 3312,2946 3237,3076 3162,3205 3055,3312 2926,3387 2796,3462 2650,3501 2501,3501 2351,3501 2205,3462 2075,3387 1946,3312 1839,3205 1764,3076 1689,2946 1650,2800 1650,2651 1650,2501 1689,2355 1764,2225 1839,2096 1946,1989 2075,1914 2205,1839 2351,1800 2500,1800 2650,1800 2796,1839 2926,1914 3055,1989 3162,2096 3237,2225 3312,2355 3351,2501 3351,2650 L 3351,2651 Z"/>
          <path fill="none" stroke="rgb(102,102,102)" stroke-width="100" stroke-linejoin="round" d="M 3351,2651 C 3351,2800 3312,2946 3237,3076 3162,3205 3055,3312 2926,3387 2796,3462 2650,3501 2501,3501 2351,3501 2205,3462 2075,3387 1946,3312 1839,3205 1764,3076 1689,2946 1650,2800 1650,2651 1650,2501 1689,2355 1764,2225 1839,2096 1946,1989 2075,1914 2205,1839 2351,1800 2500,1800 2650,1800 2796,1839 2926,1914 3055,1989 3162,2096 3237,2225 3312,2355 3351,2501 3351,2650 L 3351,2651 Z"/>
         </g>
        </g>
       </g>
       <g class="com.sun.star.drawing.CustomShape">
        <g id="id5">
         <rect class="BoundingBox" stroke="none" fill="none" x="900" y="1000" width="3541" height="1551"/>
         <path fill="rgb(255,211,32)" stroke="none" d="M 3775,2119 L 3757,2063 3736,2008 3712,1953 3684,1900 3654,1848 3620,1797 3584,1748 3545,1701 3503,1656 3458,1612 3411,1570 3362,1531 3311,1494 3257,1459 3201,1426 3144,1397 3085,1369 3024,1345 2963,1323 2899,1303 2835,1287 2770,1274 2705,1263 2638,1255 2572,1251 2505,1249 2438,1250 2372,1254 2305,1262 2240,1272 2175,1285 2110,1301 2047,1319 1985,1341 1924,1365 1865,1392 1807,1422 1751,1454 1697,1488 1646,1525 1596,1564 1549,1605 1504,1649 1461,1694 1422,1741 1385,1790 1351,1840 1320,1892 1292,1945 1267,1999 1246,2055 1227,2111 1212,2168 1200,2225 1192,2283 1187,2342 1185,2400 900,2400 902,2329 908,2258 919,2187 933,2117 951,2048 974,1980 1000,1913 1030,1847 1064,1782 1102,1719 1143,1658 1188,1598 1236,1541 1288,1486 1342,1433 1400,1383 1460,1336 1524,1291 1589,1249 1657,1210 1727,1174 1799,1141 1873,1112 1949,1086 2026,1063 2104,1044 2183,1028 2263,1015 2344,1007 2425,1002 2506,1000 2588,1002 2669,1008 2749,1017 2829,1030 2908,1046 2986,1066 3063,1090 3138,1116 3212,1146 3284,1180 3354,1216 3421,1255 3487,1298 3549,1343 3609,1391 3666,1442 3720,1495 3771,1550 3819,1608 3863,1667 3904,1729 3941,1792 3975,1857 4004,1923 4030,1991 4052,2059 4440,1973 4046,2550 3387,2205 3775,2119 Z"/>
        </g>
       </g>
       <g class="com.sun.star.drawing.CustomShape">
        <g id="id6">
         <rect class="BoundingBox" stroke="none" fill="none" x="560" y="2750" width="3541" height="1551"/>
         <path fill="rgb(255,211,32)" stroke="none" d="M 1225,3181 L 1243,3237 1264,3292 1288,3347 1316,3400 1346,3452 1380,3503 1416,3552 1455,3599 1497,3644 1542,3688 1589,3730 1638,3769 1689,3806 1743,3841 1799,3874 1856,3903 1915,3931 1976,3955 2037,3977 2101,3997 2165,4013 2230,4026 2295,4037 2362,4045 2428,4049 2495,4051 2562,4050 2628,4046 2695,4038 2760,4028 2825,4015 2890,3999 2953,3981 3015,3959 3076,3935 3135,3908 3193,3878 3249,3846 3303,3812 3354,3775 3404,3736 3451,3695 3496,3651 3539,3606 3578,3559 3615,3510 3649,3460 3680,3408 3708,3355 3733,3301 3754,3245 3773,3189 3788,3132 3800,3075 3808,3017 3813,2958 3815,2900 4100,2900 4098,2971 4092,3042 4081,3113 4067,3183 4049,3252 4026,3320 4000,3387 3970,3453 3936,3518 3898,3581 3857,3642 3812,3702 3764,3759 3712,3814 3658,3867 3600,3917 3540,3964 3476,4009 3411,4051 3343,4090 3273,4126 3201,4159 3127,4188 3051,4214 2974,4237 2896,4256 2817,4272 2737,4285 2656,4293 2575,4298 2494,4300 2412,4298 2331,4292 2251,4283 2171,4270 2092,4254 2014,4234 1937,4210 1862,4184 1788,4154 1716,4120 1646,4084 1579,4045 1513,4002 1451,3957 1391,3909 1334,3858 1280,3805 1229,3750 1181,3692 1137,3633 1096,3571 1059,3508 1025,3443 996,3377 970,3309 948,3241 560,3327 954,2750 1613,3095 1225,3181 Z"/>
        </g>
       </g>
      </g>
     </g>
    </g>
   </g>
  </g>
 </g>
</svg>