<?xml version="1.0" encoding="UTF-8"?>
<!DOCTYPE svg PUBLIC "-//W3C//DTD SVG 1.1//EN" "http://www.w3.org/Graphics/SVG/1.1/DTD/svg11.dtd">
<svg version="1.2" width="50mm" height="50mm" viewBox="0 0 5000 5000" preserveAspectRatio="xMidYMid" fill-rule="evenodd" stroke-width="28.222" stroke-linejoin="round" xmlns="http://www.w3.org/2000/svg" xmlns:ooo="http://xml.openoffice.org/svg/export" xmlns:xlink="http://www.w3.org/1999/xlink" xmlns:presentation="http://sun.com/xmlns/staroffice/presentation" xmlns:smil="http://www.w3.org/2001/SMIL20/" xmlns:anim="urn:oasis:names:tc:opendocument:xmlns:animation:1.0" xml:space="preserve">
 <defs class="ClipPathGroup">
  <clipPath id="presentation_clip_path" clipPathUnits="userSpaceOnUse">
   <rect x="0" y="0" width="5000" height="5000"/>
  </clipPath>
  <clipPath id="presentation_clip_path_shrink" clipPathUnits="userSpaceOnUse">
   <rect x="5" y="5" width="4990" height="4990"/>
  </clipPath>
 </defs>
 <defs class="TextShapeIndex">
  <g ooo:slide="id1" ooo:id-list="id3 id4 id5 id6 id7 id8 id9"/>
 </defs>
 <defs class="EmbeddedBulletChars">
  <g id="bullet-char-template-57356" transform="scale(0.00048828125,-0.00048828125)">
   <path d="M 580,1141 L 1163,571 580,0 -4,571 580,1141 Z"/>
  </g>
  <g id="bullet-char-template-57354" transform="scale(0.00048828125,-0.00048828125)">
   <path d="M 8,1128 L 1137,1128 1137,0 8,0 8,1128 Z"/>
  </g>
  <g id="bullet-char-template-10146" transform="scale(0.00048828125,-0.00048828125)">
   <path d="M 174,0 L 602,739 174,1481 1456,739 174,0 Z M 1358,739 L 309,1346 659,739 1358,739 Z"/>
  </g>
  <g id="bullet-char-template-10132" transform="scale(0.00048828125,-0.00048828125)">
   <path d="M 2015,739 L 1276,0 717,0 1260,543 174,543 174,936 1260,936 717,1481 1274,1481 2015,739 Z"/>
  </g>
  <g id="bullet-char-template-10007" transform="scale(0.00048828125,-0.00048828125)">
   <path d="M 0,-2 C -7,14 -16,27 -25,37 L 356,567 C 262,823 215,952 215,954 215,979 228,992 255,992 264,992 276,990 289,987 310,991 331,999 354,1012 L 381,999 492,748 772,1049 836,1024 860,1049 C 881,1039 901,1025 922,1006 886,937 835,863 770,784 769,783 710,716 594,584 L 774,223 C 774,196 753,168 711,139 L 727,119 C 717,90 699,76 672,76 641,76 570,178 457,381 L 164,-76 C 142,-110 111,-127 72,-127 30,-127 9,-110 8,-76 1,-67 -2,-52 -2,-32 -2,-23 -1,-13 0,-2 Z"/>
  </g>
  <g id="bullet-char-template-10004" transform="scale(0.00048828125,-0.00048828125)">
   <path d="M 285,-33 C 182,-33 111,30 74,156 52,228 41,333 41,471 41,549 55,616 82,672 116,743 169,778 240,778 293,778 328,747 346,684 L 369,508 C 377,444 397,411 428,410 L 1163,1116 C 1174,1127 1196,1133 1229,1133 1271,1133 1292,1118 1292,1087 L 1292,965 C 1292,929 1282,901 1262,881 L 442,47 C 390,-6 338,-33 285,-33 Z"/>
  </g>
  <g id="bullet-char-template-9679" transform="scale(0.00048828125,-0.00048828125)">
   <path d="M 813,0 C 632,0 489,54 383,161 276,268 223,411 223,592 223,773 276,916 383,1023 489,1130 632,1184 813,1184 992,1184 1136,1130 1245,1023 1353,916 1407,772 1407,592 1407,412 1353,268 1245,161 1136,54 992,0 813,0 Z"/>
  </g>
  <g id="bullet-char-template-8226" transform="scale(0.00048828125,-0.00048828125)">
   <path d="M 346,457 C 273,457 209,483 155,535 101,586 74,649 74,723 74,796 101,859 155,911 209,963 273,989 346,989 419,989 480,963 531,910 582,859 608,796 608,723 608,648 583,586 532,535 482,483 420,457 346,457 Z"/>
  </g>
  <g id="bullet-char-template-8211" transform="scale(0.00048828125,-0.00048828125)">
   <path d="M -4,459 L 1135,459 1135,606 -4,606 -4,459 Z"/>
  </g>
  <g id="bullet-char-template-61548" transform="scale(0.00048828125,-0.00048828125)">
   <path d="M 173,740 C 173,903 231,1043 346,1159 462,1274 601,1332 765,1332 928,1332 1067,1274 1183,1159 1299,1043 1357,903 1357,740 1357,577 1299,437 1183,322 1067,206 928,148 765,148 601,148 462,206 346,322 231,437 173,577 173,740 Z"/>
  </g>
 </defs>
 <g>
  <g id="id2" class="Master_Slide">
   <g id="bg-id2" class="Background"/>
   <g id="bo-id2" class="BackgroundObjects"/>
  </g>
 </g>
 <g class="SlideGroup">
  <g>
   <g id="container-id1">
    <g id="id1" class="Slide" clip-path="url(#presentation_clip_path)">
     <g class="Page">
      <g class="com.sun.star.drawing.CustomShape">
       <g id="id3">
        <rect class="BoundingBox" stroke="none" fill="none" x="100" y="100" width="4802" height="4802"/>
        <path fill="rgb(255,255,255)" stroke="none" d="M 4851,2501 C 4851,2913 4742,3318 4536,3676 4330,4033 4033,4330 3676,4536 3318,4742 2913,4851 2501,4851 2088,4851 1683,4742 1325,4536 968,4330 671,4033 465,3676 259,3318 150,2913 150,2501 150,2088 259,1683 465,1325 671,968 968,671 1325,465 1683,259 2088,150 2500,150 2913,150 3318,259 3676,465 4033,671 4330,968 4536,1325 4742,1683 4851,2088 4851,2500 L 4851,2501 Z"/>
        <path fill="none" stroke="rgb(52,101,164)" stroke-width="100" stroke-linejoin="round" d="M 4851,2501 C 4851,2913 4742,3318 4536,3676 4330,4033 4033,4330 3676,4536 3318,4742 2913,4851 2501,4851 2088,4851 1683,4742 1325,4536 968,4330 671,4033 465,3676 259,3318 150,2913 150,2501 150,2088 259,1683 465,1325 671,968 968,671 1325,465 1683,259 2088,150 2500,150 2913,150 3318,259 3676,465 4033,671 4330,968 4536,1325 4742,1683 4851,2088 4851,2500 L 4851,2501 Z"/>
       </g>
      </g>
      <g class="com.sun.star.drawing.ClosedBezierShape">
       <g id="id4">
        <rect class="BoundingBox" stroke="none" fill="none" x="950" y="116" width="1551" height="4769"/>
        <path fill="rgb(52,101,164)" stroke="none" d="M 2500,218 C 2427,231 2355,251 2284,277 2145,328 2011,404 1885,504 1759,604 1643,727 1541,868 1438,1009 1348,1169 1275,1344 1128,1696 1050,2094 1050,2500 1050,2906 1128,3304 1275,3656 1348,3831 1438,3991 1541,4132 1643,4273 1759,4396 1885,4496 2011,4596 2145,4672 2284,4723 2355,4749 2427,4769 2500,4782 L 2500,4883 C 2415,4869 2331,4847 2249,4817 2101,4762 1957,4681 1823,4574 1690,4468 1568,4340 1460,4191 1353,4044 1259,3877 1183,3694 1030,3331 950,2919 950,2500 950,2081 1030,1669 1183,1306 1259,1123 1353,956 1460,809 1568,660 1690,532 1823,426 1957,319 2101,238 2249,183 2331,153 2415,131 2500,117 L 2500,218 Z"/>
       </g>
      </g>
      <g class="com.sun.star.drawing.ClosedBezierShape">
       <g id="id5">
        <rect class="BoundingBox" stroke="none" fill="none" x="2450" y="116" width="1551" height="4769"/>
        <path fill="rgb(52,101,164)" stroke="none" d="M 2450,218 C 2523,231 2595,251 2666,277 2805,328 2939,404 3065,504 3191,604 3307,727 3409,868 3512,1009 3602,1169 3675,1344 3822,1696 3900,2094 3900,2500 3900,2906 3822,3304 3675,3656 3602,3831 3512,3991 3409,4132 3307,4273 3191,4396 3065,4496 2939,4596 2805,4672 2666,4723 2595,4749 2523,4769 2450,4782 L 2450,4883 C 2535,4869 2619,4847 2701,4817 2849,4762 2993,4681 3127,4574 3260,4468 3382,4340 3490,4191 3597,4044 3691,3877 3767,3694 3920,3331 4000,2919 4000,2500 4000,2081 3920,1669 3767,1306 3691,1123 3597,956 3490,809 3382,660 3260,532 3127,426 2993,319 2849,238 2701,183 2619,153 2535,131 2450,117 L 2450,218 Z"/>
       </g>
      </g>
      <g class="com.sun.star.drawing.LineShape">
       <g id="id6">
        <rect class="BoundingBox" stroke="none" fill="none" x="2432" y="126" width="101" height="4801"/>
        <path fill="none" stroke="rgb(52,101,164)" stroke-width="100" stroke-linejoin="round" d="M 2482,176 L 2482,4876"/>
       </g>
      </g>
      <g class="com.sun.star.drawing.LineShape">
       <g id="id7">
        <rect class="BoundingBox" stroke="none" fill="none" x="550" y="1050" width="3901" height="101"/>
        <path fill="none" stroke="rgb(52,101,164)" stroke-width="100" stroke-linejoin="round" d="M 600,1100 L 4400,1100"/>
       </g>
      </g>
      <g class="com.sun.star.drawing.LineShape">
       <g id="id8">
        <rect class="BoundingBox" stroke="none" fill="none" x="550" y="3850" width="3901" height="101"/>
        <path fill="none" stroke="rgb(52,101,164)" stroke-width="100" stroke-linejoin="round" d="M 600,3900 L 4400,3900"/>
       </g>
      </g>
      <g class="com.sun.star.drawing.LineShape">
       <g id="id9">
        <rect class="BoundingBox" stroke="none" fill="none" x="132" y="2450" width="4737" height="101"/>
        <path fill="none" stroke="rgb(52,101,164)" stroke-width="100" stroke-linejoin="round" d="M 182,2500 L 4818,2500"/>
       </g>
      </g>
     </g>
    </g>
   </g>
  </g>
 </g>
</svg>